# Blender v3.2.2 OBJ File: '_start.blend'
# www.blender.org
mtllib start.mtl
o Cube
v -0.500000 0.000000 0.500000
v -0.500000 0.000000 -0.500000
v 0.500000 0.000000 0.500000
v 0.500000 0.000000 -0.500000
vt 0.125000 0.500000
vt 0.375000 0.500000
vt 0.375000 0.750000
vt 0.125000 0.750000
vn 0.0000 -1.0000 0.0000
usemtl Material.001
s off
f 2/1/1 4/2/1 3/3/1 1/4/1
o Text
v -0.253111 0.100000 0.409485
v -0.228841 0.100000 0.421923
v -0.204896 0.100000 0.433241
v -0.181254 0.100000 0.443447
v -0.157893 0.100000 0.452548
v -0.134793 0.100000 0.460552
v -0.111931 0.100000 0.467465
v -0.089286 0.100000 0.473294
v -0.066836 0.100000 0.478048
v -0.044559 0.100000 0.481732
v -0.022433 0.100000 0.484355
v -0.000438 0.100000 0.485923
v 0.021449 0.100000 0.486445
v 0.066831 0.100000 0.484470
v 0.109252 0.100000 0.478625
v 0.148524 0.100000 0.469025
v 0.184459 0.100000 0.455784
v 0.216870 0.100000 0.439019
v 0.245569 0.100000 0.418845
v 0.270367 0.100000 0.395377
v 0.291078 0.100000 0.368732
v 0.307514 0.100000 0.339025
v 0.319486 0.100000 0.306370
v 0.326807 0.100000 0.270885
v 0.329289 0.100000 0.232684
v 0.320694 0.100000 0.173437
v 0.296933 0.100000 0.120971
v 0.261039 0.100000 0.074442
v 0.216044 0.100000 0.033004
v 0.164983 0.100000 -0.004186
v 0.110889 0.100000 -0.037976
v 0.056794 0.100000 -0.069208
v 0.005733 0.100000 -0.098729
v -0.039262 0.100000 -0.127383
v -0.075156 0.100000 -0.156015
v -0.098917 0.100000 -0.185471
v -0.107511 0.100000 -0.216595
v -0.106240 0.100000 -0.232585
v -0.102543 0.100000 -0.247275
v -0.096591 0.100000 -0.260665
v -0.088560 0.100000 -0.272755
v -0.078623 0.100000 -0.283545
v -0.066951 0.100000 -0.293035
v -0.053720 0.100000 -0.301225
v -0.039103 0.100000 -0.308115
v -0.023271 0.100000 -0.313705
v -0.006400 0.100000 -0.317995
v 0.011337 0.100000 -0.320985
v 0.029769 0.100000 -0.322675
v 0.049211 0.100000 -0.321850
v 0.070040 0.100000 -0.319363
v 0.092169 0.100000 -0.315201
v 0.115511 0.100000 -0.309348
v 0.139980 0.100000 -0.301791
v 0.165489 0.100000 -0.292516
v 0.191951 0.100000 -0.281506
v 0.219280 0.100000 -0.268750
v 0.247389 0.100000 -0.254231
v 0.276191 0.100000 -0.237935
v 0.305600 0.100000 -0.219848
v 0.335529 0.100000 -0.199956
v 0.335528 0.100000 -0.399636
v 0.305986 0.100000 -0.414422
v 0.277548 0.100000 -0.427619
v 0.250021 0.100000 -0.439286
v 0.223208 0.100000 -0.449478
v 0.196916 0.100000 -0.458256
v 0.170948 0.100000 -0.465676
v 0.145111 0.100000 -0.471795
v 0.119208 0.100000 -0.476673
v 0.093046 0.100000 -0.480365
v 0.066428 0.100000 -0.482932
v 0.039161 0.100000 -0.484429
v 0.011048 0.100000 -0.484915
v -0.032149 0.100000 -0.482651
v -0.073143 0.100000 -0.475989
v -0.111639 0.100000 -0.465123
v -0.147340 0.100000 -0.450249
v -0.179949 0.100000 -0.431561
v -0.209172 0.100000 -0.409255
v -0.234710 0.100000 -0.383526
v -0.256270 0.100000 -0.354569
v -0.273554 0.100000 -0.322578
v -0.286266 0.100000 -0.287749
v -0.294111 0.100000 -0.250276
v -0.296791 0.100000 -0.210355
v -0.295597 0.100000 -0.187046
v -0.291919 0.100000 -0.164798
v -0.285611 0.100000 -0.143373
v -0.276531 0.100000 -0.122533
v -0.264532 0.100000 -0.102040
v -0.249471 0.100000 -0.081655
v -0.231204 0.100000 -0.061141
v -0.209585 0.100000 -0.040258
v -0.184471 0.100000 -0.018768
v -0.155717 0.100000 0.003567
v -0.123179 0.100000 0.026985
v -0.086711 0.100000 0.051725
v -0.047732 0.100000 0.074713
v -0.012862 0.100000 0.095925
v 0.018036 0.100000 0.115490
v 0.045099 0.100000 0.133538
v 0.068464 0.100000 0.150200
v 0.088269 0.100000 0.165605
v 0.104650 0.100000 0.179883
v 0.117745 0.100000 0.193165
v 0.127691 0.100000 0.205580
v 0.134626 0.100000 0.217258
v 0.138686 0.100000 0.228330
v 0.140009 0.100000 0.238925
v 0.139024 0.100000 0.251089
v 0.136118 0.100000 0.262575
v 0.131364 0.100000 0.273309
v 0.124832 0.100000 0.283221
v 0.116597 0.100000 0.292237
v 0.106729 0.100000 0.300285
v 0.095301 0.100000 0.307292
v 0.082385 0.100000 0.313188
v 0.068054 0.100000 0.317900
v 0.052379 0.100000 0.321354
v 0.035433 0.100000 0.323480
v 0.017289 0.100000 0.324205
v -0.000465 0.100000 0.323592
v -0.019352 0.100000 0.321730
v -0.039294 0.100000 0.318582
v -0.060211 0.100000 0.314113
v -0.082023 0.100000 0.308286
v -0.104651 0.100000 0.301065
v -0.128016 0.100000 0.292414
v -0.152039 0.100000 0.282296
v -0.176639 0.100000 0.270677
v -0.201737 0.100000 0.257519
v -0.227255 0.100000 0.242787
v -0.253111 0.100000 0.226445
vt 0.097744 0.000000
vt 0.082707 0.000000
vt 0.090226 0.000000
vt 0.075188 0.000000
vt 0.105263 0.000000
vt 0.067669 0.000000
vt 0.060150 0.000000
vt 0.112782 0.000000
vt 0.052632 0.000000
vt 0.045113 0.000000
vt 0.120301 0.000000
vt 0.037594 0.000000
vt 0.030075 0.000000
vt 0.127820 0.000000
vt 0.022556 0.000000
vt 0.015038 0.000000
vt 0.135338 0.000000
vt 0.007519 0.000000
vt 0.000000 0.000000
vt 0.142857 0.000000
vt 0.939850 0.000000
vt 0.947368 0.000000
vt 0.954887 0.000000
vt 0.962406 0.000000
vt 0.969925 0.000000
vt 0.977444 0.000000
vt 0.984962 0.000000
vt 0.992481 0.000000
vt 1.000000 0.000000
vt 0.150376 0.000000
vt 0.924812 0.000000
vt 0.932331 0.000000
vt 0.157895 0.000000
vt 0.917293 0.000000
vt 0.165414 0.000000
vt 0.902256 0.000000
vt 0.909774 0.000000
vt 0.894737 0.000000
vt 0.887218 0.000000
vt 0.879699 0.000000
vt 0.872180 0.000000
vt 0.864662 0.000000
vt 0.172932 0.000000
vt 0.857143 0.000000
vt 0.849624 0.000000
vt 0.842105 0.000000
vt 0.834586 0.000000
vt 0.180451 0.000000
vt 0.827068 0.000000
vt 0.819549 0.000000
vt 0.812030 0.000000
vt 0.187970 0.000000
vt 0.804511 0.000000
vt 0.796992 0.000000
vt 0.789474 0.000000
vt 0.781955 0.000000
vt 0.774436 0.000000
vt 0.195489 0.000000
vt 0.766917 0.000000
vt 0.759399 0.000000
vt 0.751880 0.000000
vt 0.203008 0.000000
vt 0.744361 0.000000
vt 0.736842 0.000000
vt 0.729323 0.000000
vt 0.210526 0.000000
vt 0.721804 0.000000
vt 0.218045 0.000000
vt 0.714286 0.000000
vt 0.706767 0.000000
vt 0.225564 0.000000
vt 0.699248 0.000000
vt 0.233083 0.000000
vt 0.691729 0.000000
vt 0.684211 0.000000
vt 0.240602 0.000000
vt 0.676692 0.000000
vt 0.248120 0.000000
vt 0.669173 0.000000
vt 0.661654 0.000000
vt 0.255639 0.000000
vt 0.654135 0.000000
vt 0.263158 0.000000
vt 0.646617 0.000000
vt 0.270677 0.000000
vt 0.639098 0.000000
vt 0.458647 0.000000
vt 0.443609 0.000000
vt 0.451128 0.000000
vt 0.631579 0.000000
vt 0.278196 0.000000
vt 0.436090 0.000000
vt 0.285714 0.000000
vt 0.428571 0.000000
vt 0.293233 0.000000
vt 0.624060 0.000000
vt 0.421053 0.000000
vt 0.300752 0.000000
vt 0.413534 0.000000
vt 0.308271 0.000000
vt 0.406015 0.000000
vt 0.315789 0.000000
vt 0.616541 0.000000
vt 0.398496 0.000000
vt 0.323308 0.000000
vt 0.330827 0.000000
vt 0.390977 0.000000
vt 0.338346 0.000000
vt 0.383459 0.000000
vt 0.345865 0.000000
vt 0.375940 0.000000
vt 0.353383 0.000000
vt 0.368421 0.000000
vt 0.360902 0.000000
vt 0.609023 0.000000
vt 0.601504 0.000000
vt 0.593985 0.000000
vt 0.466165 0.000000
vt 0.586466 0.000000
vt 0.473684 0.000000
vt 0.481203 0.000000
vt 0.578947 0.000000
vt 0.488722 0.000000
vt 0.496241 0.000000
vt 0.571429 0.000000
vt 0.503759 0.000000
vt 0.563910 0.000000
vt 0.511278 0.000000
vt 0.518797 0.000000
vt 0.556391 0.000000
vt 0.526316 0.000000
vt 0.533835 0.000000
vt 0.548872 0.000000
vt 0.541353 0.000000
vn 0.0000 1.0000 0.0000
usemtl Material
s off
f 18/5/2 16/6/2 17/7/2
f 18/5/2 15/8/2 16/6/2
f 19/9/2 15/8/2 18/5/2
f 19/9/2 14/10/2 15/8/2
f 19/9/2 13/11/2 14/10/2
f 20/12/2 13/11/2 19/9/2
f 20/12/2 12/13/2 13/11/2
f 20/12/2 11/14/2 12/13/2
f 21/15/2 11/14/2 20/12/2
f 21/15/2 10/16/2 11/14/2
f 21/15/2 9/17/2 10/16/2
f 22/18/2 9/17/2 21/15/2
f 22/18/2 8/19/2 9/17/2
f 22/18/2 7/20/2 8/19/2
f 23/21/2 7/20/2 22/18/2
f 23/21/2 6/22/2 7/20/2
f 23/21/2 5/23/2 6/22/2
f 24/24/2 5/23/2 23/21/2
f 24/24/2 130/25/2 5/23/2
f 130/25/2 131/26/2 5/23/2
f 131/26/2 132/27/2 5/23/2
f 132/27/2 133/28/2 5/23/2
f 133/28/2 134/29/2 5/23/2
f 134/29/2 135/30/2 5/23/2
f 135/30/2 136/31/2 5/23/2
f 136/31/2 137/32/2 5/23/2
f 137/32/2 138/33/2 5/23/2
f 25/34/2 128/35/2 24/24/2
f 128/35/2 129/36/2 24/24/2
f 129/36/2 130/25/2 24/24/2
f 26/37/2 127/38/2 25/34/2
f 127/38/2 128/35/2 25/34/2
f 27/39/2 125/40/2 26/37/2
f 125/40/2 126/41/2 26/37/2
f 126/41/2 127/38/2 26/37/2
f 27/39/2 124/42/2 125/40/2
f 27/39/2 123/43/2 124/42/2
f 27/39/2 122/44/2 123/43/2
f 27/39/2 121/45/2 122/44/2
f 27/39/2 120/46/2 121/45/2
f 28/47/2 120/46/2 27/39/2
f 28/47/2 119/48/2 120/46/2
f 28/47/2 118/49/2 119/48/2
f 28/47/2 117/50/2 118/49/2
f 28/47/2 116/51/2 117/50/2
f 29/52/2 116/51/2 28/47/2
f 29/52/2 115/53/2 116/51/2
f 29/52/2 114/54/2 115/53/2
f 29/52/2 113/55/2 114/54/2
f 30/56/2 113/55/2 29/52/2
f 30/56/2 112/57/2 113/55/2
f 30/56/2 111/58/2 112/57/2
f 30/56/2 110/59/2 111/58/2
f 30/56/2 109/60/2 110/59/2
f 30/56/2 108/61/2 109/60/2
f 31/62/2 108/61/2 30/56/2
f 31/62/2 107/63/2 108/61/2
f 31/62/2 106/64/2 107/63/2
f 31/62/2 105/65/2 106/64/2
f 32/66/2 105/65/2 31/62/2
f 32/66/2 104/67/2 105/65/2
f 32/66/2 103/68/2 104/67/2
f 32/66/2 102/69/2 103/68/2
f 33/70/2 102/69/2 32/66/2
f 33/70/2 101/71/2 102/69/2
f 34/72/2 101/71/2 33/70/2
f 34/72/2 100/73/2 101/71/2
f 34/72/2 99/74/2 100/73/2
f 35/75/2 99/74/2 34/72/2
f 35/75/2 98/76/2 99/74/2
f 36/77/2 98/76/2 35/75/2
f 36/77/2 97/78/2 98/76/2
f 36/77/2 96/79/2 97/78/2
f 37/80/2 96/79/2 36/77/2
f 37/80/2 95/81/2 96/79/2
f 38/82/2 95/81/2 37/80/2
f 38/82/2 94/83/2 95/81/2
f 38/82/2 93/84/2 94/83/2
f 39/85/2 93/84/2 38/82/2
f 39/85/2 92/86/2 93/84/2
f 40/87/2 92/86/2 39/85/2
f 40/87/2 91/88/2 92/86/2
f 41/89/2 91/88/2 40/87/2
f 41/89/2 90/90/2 91/88/2
f 66/91/2 64/92/2 65/93/2
f 41/89/2 89/94/2 90/90/2
f 42/95/2 89/94/2 41/89/2
f 66/91/2 63/96/2 64/92/2
f 43/97/2 89/94/2 42/95/2
f 66/91/2 62/98/2 63/96/2
f 44/99/2 89/94/2 43/97/2
f 44/99/2 88/100/2 89/94/2
f 66/91/2 61/101/2 62/98/2
f 45/102/2 88/100/2 44/99/2
f 66/91/2 60/103/2 61/101/2
f 46/104/2 88/100/2 45/102/2
f 66/91/2 59/105/2 60/103/2
f 47/106/2 88/100/2 46/104/2
f 47/106/2 87/107/2 88/100/2
f 66/91/2 58/108/2 59/105/2
f 48/109/2 87/107/2 47/106/2
f 49/110/2 87/107/2 48/109/2
f 66/91/2 57/111/2 58/108/2
f 50/112/2 87/107/2 49/110/2
f 66/91/2 56/113/2 57/111/2
f 51/114/2 87/107/2 50/112/2
f 66/91/2 55/115/2 56/113/2
f 52/116/2 87/107/2 51/114/2
f 66/91/2 54/117/2 55/115/2
f 53/118/2 87/107/2 52/116/2
f 66/91/2 53/118/2 54/117/2
f 53/118/2 86/119/2 87/107/2
f 66/91/2 86/119/2 53/118/2
f 66/91/2 85/120/2 86/119/2
f 66/91/2 84/121/2 85/120/2
f 67/122/2 84/121/2 66/91/2
f 67/122/2 83/123/2 84/121/2
f 68/124/2 83/123/2 67/122/2
f 69/125/2 83/123/2 68/124/2
f 69/125/2 82/126/2 83/123/2
f 70/127/2 82/126/2 69/125/2
f 71/128/2 82/126/2 70/127/2
f 71/128/2 81/129/2 82/126/2
f 72/130/2 81/129/2 71/128/2
f 72/130/2 80/131/2 81/129/2
f 73/132/2 80/131/2 72/130/2
f 74/133/2 80/131/2 73/132/2
f 74/133/2 79/134/2 80/131/2
f 75/135/2 79/134/2 74/133/2
f 76/136/2 79/134/2 75/135/2
f 76/136/2 78/137/2 79/134/2
f 77/138/2 78/137/2 76/136/2
